<svg xmlns="http://www.w3.org/2000/svg" viewBox="0 0 512 512" fill="#FFE66D">
  <path d="M445.7 0L512 66.3 445.7 0zM0 66.3L66.3 0 0 66.3zM256 96c35.3 0 64 28.7 64 64c0 11.7-3.1 22.6-8.6 32H200.6c-5.4-9.4-8.6-20.3-8.6-32c0-35.3 28.7-64 64-64zM121.7 134.1L96 64l84.8 30.3c-22.2 10.4-41.3 25.8-55.9 44.6c-1.1-1.6-2.2-3.2-3.2-4.8zm268.6 39.8c-14.6-18.8-33.7-34.2-55.9-44.6L419.2 99 393.5 169c-1-1.6-2.1-3.2-3.2-4.9zM384 256v96H128V256h64v32c0 17.7 14.3 32 32 32h64c17.7 0 32-14.3 32-32V256h64zM112 448L0 512l64-112 48 48zm240-48l64 112-112-64 48-48zm-95-16l47 112-112-48 65-64zm-1.4 0L191 448l-48-112 112.6 48z"/>
</svg>